<?xml version="1.0" encoding="UTF-8" standalone="no"?>
<svg
   xmlns:dc="http://purl.org/dc/elements/1.1/"
   xmlns:cc="http://creativecommons.org/ns#"
   xmlns:rdf="http://www.w3.org/1999/02/22-rdf-syntax-ns#"
   xmlns:svg="http://www.w3.org/2000/svg"
   xmlns="http://www.w3.org/2000/svg"
   viewBox="0 0 1112.8228 543.51465"
   height="543.51465"
   width="1112.8228"
   xml:space="preserve"
   id="svg2"
   version="1.1"><metadata
     id="metadata8"><rdf:RDF><cc:Work
         rdf:about=""><dc:format>image/svg+xml</dc:format><dc:type
           rdf:resource="http://purl.org/dc/dcmitype/StillImage" /></cc:Work></rdf:RDF></metadata><defs
     id="defs6"><clipPath
       id="clipPath18"
       clipPathUnits="userSpaceOnUse"><path
         id="path16"
         d="M 0,407.636 H 834.617 V 0 H 0 Z" /></clipPath></defs><g
     transform="matrix(1.3333333,0,0,-1.3333333,0,543.51467)"
     id="g10"><g
       id="g12"><g
         clip-path="url(#clipPath18)"
         id="g14"><g
           transform="translate(472.7947,191.8984)"
           id="g20"><path
             id="path22"
             style="fill:#00b1ff;fill-opacity:1;fill-rule:nonzero;stroke:none"
             d="m 0,0 c 0,-1.274 0.388,-2.009 1.155,-2.009 0.534,0 1.04,0.238 1.672,0.647 l 215.437,139.895 c 3.78,2.473 7.249,3.774 12.417,3.773 l 47.351,-0.001 c 7.284,0 12.14,-4.858 12.14,-12.141 V 39.762 c 0,-10.928 -2.423,-17.236 -12.135,-23.07 l -57.434,-34.509 c -0.766,-0.475 -1.382,-0.713 -1.926,-0.713 -0.698,0 -1.338,0.535 -1.338,2.499 l 0.01,105.527 c 0,1.146 -0.389,2.026 -1.173,2.026 -0.534,0 -1.034,-0.238 -1.662,-0.621 L 57.009,-11.399 c -4.417,-2.863 -8.04,-3.725 -12.087,-3.725 H -59.491 c -7.286,0 -12.142,4.857 -12.142,12.142 V 127.3 c 0,0.954 -0.424,1.833 -1.155,1.833 -0.533,0 -1.035,-0.233 -1.692,-0.632 L -178.359,66.103 c -1.039,-0.623 -1.321,-1.138 -1.324,-1.637 -0.003,-0.448 0.18,-0.865 0.917,-1.601 l 74.191,-74.19 c 0.988,-0.991 1.668,-1.744 1.668,-2.517 0,-0.878 -1.088,-1.281 -2.352,-1.281 l -67.145,-0.001 c -5.26,0 -9.316,0.807 -12.149,3.639 l -44.988,44.987 c -0.44,0.44 -0.819,0.711 -1.298,0.714 -0.403,0.002 -0.922,-0.195 -1.394,-0.485 l -75.266,-45.224 c -4.548,-2.733 -7.699,-3.631 -12.151,-3.631 h -69.27 c -7.286,0 -12.141,4.857 -12.141,12.142 v 88.748 c 0,10.926 2.445,17.196 12.147,23.025 l 57.779,34.716 c 0.581,0.357 1.093,0.505 1.569,0.505 0.875,0 1.355,-0.921 1.355,-2.921 l -0.002,-118.646 c 0,-1.245 0.342,-1.83 1.152,-1.83 0.534,0 1.061,0.322 1.718,0.718 l 195.251,117.331 c 4.651,2.813 7.515,3.642 12.883,3.642 l 105.067,-0.001 c 7.285,0 12.141,-4.858 12.141,-12.141 z" /></g><g
           transform="translate(71.7342,123.3515)"
           id="g24"><path
             id="path26"
             style="fill:#00b1ff;fill-opacity:1;fill-rule:nonzero;stroke:none"
             d="M 0,0 H 5.548 L 23.731,-42.249 41.914,0 h 5.482 v -50.805 h -4.747 v 41.78 L 24.667,-50.805 H 22.729 L 4.747,-9.025 v -41.78 H 0 Z" /></g><g
           transform="translate(143.2781,75.2871)"
           id="g28"><path
             id="path30"
             style="fill:#00b1ff;fill-opacity:1;fill-rule:nonzero;stroke:none"
             d="m 0,0 c 7.219,0 11.832,5.549 11.832,14.907 v 1.137 c 0,9.291 -4.613,14.974 -11.832,14.974 -7.22,0 -11.833,-5.683 -11.833,-14.974 V 14.907 C -11.833,5.549 -7.22,0 0,0 m -16.512,16.044 c 0,11.431 6.752,18.717 16.512,18.717 9.76,0 16.511,-7.286 16.511,-18.717 V 14.907 C 16.511,3.476 9.76,-3.744 0,-3.744 c -9.76,0 -16.512,7.22 -16.512,18.651 z" /></g><g
           transform="translate(166.4182,109.0459)"
           id="g32"><path
             id="path34"
             style="fill:#00b1ff;fill-opacity:1;fill-rule:nonzero;stroke:none"
             d="M 0,0 11.833,-31.62 23.798,0 h 4.613 L 14.44,-36.5 H 9.092 L -4.879,0 Z" /></g><g
           transform="translate(223.2503,93.0019)"
           id="g36"><path
             id="path38"
             style="fill:#00b1ff;fill-opacity:1;fill-rule:nonzero;stroke:none"
             d="M 0,0 C -0.201,9.426 -4.813,13.303 -10.696,13.303 -16.712,13.303 -21.592,8.156 -21.993,0 Z m -26.672,-1.27 c 0,10.696 6.484,18.316 15.976,18.316 9.092,0 15.242,-6.016 15.242,-18.717 V -3.609 H -22.06 c 0.268,-7.889 4.613,-14.106 11.832,-14.106 6.351,0 10.496,3.209 12.902,5.549 v -4.947 c -2.741,-2.474 -7.353,-4.345 -12.902,-4.345 -10.294,0 -16.444,7.621 -16.444,18.65 z" /></g><g
           transform="translate(234.6853,109.0459)"
           id="g40"><path
             id="path42"
             style="fill:#00b1ff;fill-opacity:1;fill-rule:nonzero;stroke:none"
             d="m 0,0 h 4.011 l 0.468,-7.487 c 2.339,4.479 6.551,8.489 12.5,8.489 5.616,0 9.226,-3.008 10.295,-8.757 2.474,4.613 6.752,8.757 12.768,8.757 6.819,0 10.696,-4.412 10.696,-12.768 V -36.5 h -4.546 v 24.066 c 0,6.351 -1.804,9.693 -6.818,9.693 -4.546,0 -10.228,-5.214 -11.766,-11.03 V -36.5 h -4.545 v 24.066 c 0,6.351 -1.738,9.693 -6.752,9.693 -4.545,0 -10.228,-5.214 -11.766,-11.03 l 0,-22.729 H 0 Z" /></g><g
           transform="translate(318.6961,93.0019)"
           id="g44"><path
             id="path46"
             style="fill:#00b1ff;fill-opacity:1;fill-rule:nonzero;stroke:none"
             d="M 0,0 C -0.201,9.426 -4.813,13.303 -10.696,13.303 -16.712,13.303 -21.592,8.156 -21.993,0 Z m -26.673,-1.27 c 0,10.696 6.485,18.316 15.977,18.316 9.092,0 15.242,-6.016 15.242,-18.717 V -3.609 H -22.06 c 0.268,-7.889 4.613,-14.106 11.832,-14.106 6.351,0 10.496,3.209 12.902,5.549 v -4.947 c -2.741,-2.474 -7.353,-4.345 -12.902,-4.345 -10.295,0 -16.445,7.621 -16.445,18.65 z" /></g><g
           transform="translate(330.1311,109.0459)"
           id="g48"><path
             id="path50"
             style="fill:#00b1ff;fill-opacity:1;fill-rule:nonzero;stroke:none"
             d="m 0,0 h 4.011 l 0.468,-8.423 c 2.339,4.612 7.152,9.425 13.704,9.425 7.554,0 11.498,-4.746 11.498,-13.436 V -36.5 h -4.546 v 23.397 c 0,6.686 -1.939,10.362 -7.621,10.362 -5.482,0 -11.498,-6.15 -12.969,-12.568 l 0,-21.191 H 0 Z" /></g><g
           transform="translate(363.9593,109.0459)"
           id="g52"><path
             id="path54"
             style="fill:#00b1ff;fill-opacity:1;fill-rule:nonzero;stroke:none"
             d="m 0,0 h 8.089 v 11.097 h 4.545 V 0 h 8.09 v -3.811 h -8.09 V -36.5 H 8.089 V -3.811 H 0 Z" /></g><g
           transform="translate(405.3352,109.0459)"
           id="g56"><path
             id="path58"
             style="fill:#00b1ff;fill-opacity:1;fill-rule:nonzero;stroke:none"
             d="m 0,0 h 8.089 v 11.097 h 4.545 V 0 h 8.089 V -3.811 H 12.634 V -36.5 H 8.089 V -3.811 H 0 Z" /></g><g
           transform="translate(431.2703,123.7524)"
           id="g60"><path
             id="path62"
             style="fill:#00b1ff;fill-opacity:1;fill-rule:nonzero;stroke:none"
             d="m 0,0 h 4.545 v -22.929 c 2.34,4.546 7.154,9.225 13.571,9.225 7.554,0 11.498,-4.746 11.498,-13.437 v -24.065 h -4.546 v 23.397 c 0,6.685 -1.939,10.362 -7.621,10.362 -5.415,0 -11.297,-5.95 -12.902,-12.301 V -51.206 H 0 Z" /></g><g
           transform="translate(478.7971,75.2871)"
           id="g64"><path
             id="path66"
             style="fill:#00b1ff;fill-opacity:1;fill-rule:nonzero;stroke:none"
             d="m 0,0 c 4.345,0 10.094,2.941 13.236,8.624 v 8.022 L 6.284,15.308 C 1.27,14.373 -3.811,13.704 -5.95,10.896 -6.885,9.693 -7.153,8.356 -7.153,6.751 -7.153,2.139 -4.211,0 0,0 m -10.027,12.634 c 2.005,3.009 6.016,4.412 13.436,5.816 l 9.827,1.872 c 0,7.086 -3.075,10.696 -9.894,10.696 -5.347,0 -9.492,-2.474 -12.366,-5.415 v 4.612 c 2.607,2.407 6.952,4.546 12.366,4.546 8.691,0 14.373,-4.345 14.373,-13.369 V -2.741 h -3.342 l -1.137,6.284 c -3.209,-4.412 -8.49,-7.287 -14.172,-7.287 -6.351,0 -10.83,3.543 -10.83,10.362 0,2.206 0.469,4.145 1.739,6.016" /></g><g
           transform="translate(500.5598,109.0459)"
           id="g68"><path
             id="path70"
             style="fill:#00b1ff;fill-opacity:1;fill-rule:nonzero;stroke:none"
             d="m 0,0 h 8.089 v 11.097 h 4.545 V 0 h 8.09 v -3.811 h -8.09 V -36.5 H 8.089 V -3.811 H 0 Z" /></g><path
           id="path72"
           style="fill:#00b1ff;fill-opacity:1;fill-rule:nonzero;stroke:none"
           d="m 546.615,109.046 h 4.545 v -36.5 h -4.545 z m 0,13.369 h 4.545 v -6.484 h -4.545 z" /><g
           transform="translate(560.0569,109.0459)"
           id="g74"><path
             id="path76"
             style="fill:#00b1ff;fill-opacity:1;fill-rule:nonzero;stroke:none"
             d="m 0,0 h 4.011 l 0.468,-8.423 c 2.339,4.612 7.152,9.425 13.704,9.425 7.554,0 11.498,-4.746 11.498,-13.436 V -36.5 h -4.546 v 23.397 c 0,6.686 -1.939,10.362 -7.621,10.362 -5.482,0 -11.498,-6.15 -12.969,-12.568 l 0,-21.191 H 0 Z" /></g><g
           transform="translate(596.6057,80.9023)"
           id="g78"><path
             id="path80"
             style="fill:#00b1ff;fill-opacity:1;fill-rule:nonzero;stroke:none"
             d="m 0,0 c 3.343,-3.811 6.685,-5.615 11.365,-5.615 5.281,0 8.89,2.406 8.89,6.35 0,2.674 -0.869,4.68 -5.614,6.685 L 9.092,9.76 c -5.816,2.473 -8.624,5.482 -8.624,9.96 0,4.88 4.279,9.426 11.967,9.426 4.611,0 8.623,-2.005 11.163,-4.145 v -5.214 c -3.543,3.744 -7.621,5.616 -11.163,5.616 -5.148,0 -7.288,-2.741 -7.288,-5.683 0,-2.607 2.006,-4.077 6.151,-5.816 l 5.348,-2.272 C 22.595,9.091 24.935,5.816 24.935,0.936 24.935,-5.281 19.386,-9.359 11.365,-9.359 5.616,-9.359 2.34,-7.42 0,-5.214 Z" /></g><g
           transform="translate(644.5676,75.2871)"
           id="g82"><path
             id="path84"
             style="fill:#00b1ff;fill-opacity:1;fill-rule:nonzero;stroke:none"
             d="m 0,0 c 6.886,0 11.565,6.217 11.565,15.576 0,9.225 -4.679,15.442 -11.565,15.442 -5.147,0 -10.027,-4.613 -11.765,-10.228 V 10.228 C -10.027,4.612 -5.147,0 0,0 m -16.311,33.759 h 4.011 l 0.402,-6.551 c 2.606,4.345 7.152,7.553 12.299,7.553 9.292,0 15.844,-7.62 15.844,-19.185 0,-11.699 -6.552,-19.32 -15.844,-19.32 -5.08,0 -9.492,3.142 -12.166,7.287 v -20.991 h -4.546 z" /></g><path
           id="path86"
           style="fill:#00b1ff;fill-opacity:1;fill-rule:nonzero;stroke:none"
           d="m 667.761,109.046 h 4.545 v -36.5 h -4.545 z m 0,13.369 h 4.545 v -6.484 h -4.545 z" /><g
           transform="translate(681.2024,109.0459)"
           id="g88"><path
             id="path90"
             style="fill:#00b1ff;fill-opacity:1;fill-rule:nonzero;stroke:none"
             d="m 0,0 h 4.011 l 0.401,-6.484 c 2.206,4.478 5.682,7.486 10.896,7.486 1.471,0 3.075,-0.267 3.677,-0.534 v -4.011 c -0.936,0.334 -2.273,0.602 -4.011,0.602 -4.479,0 -8.623,-3.476 -10.429,-9.025 V -36.5 H 0 Z" /></g><g
           transform="translate(728.6428,93.0019)"
           id="g92"><path
             id="path94"
             style="fill:#00b1ff;fill-opacity:1;fill-rule:nonzero;stroke:none"
             d="M 0,0 C -0.201,9.426 -4.813,13.303 -10.696,13.303 -16.712,13.303 -21.592,8.156 -21.993,0 Z m -26.672,-1.27 c 0,10.696 6.484,18.316 15.976,18.316 9.092,0 15.242,-6.016 15.242,-18.717 V -3.609 H -22.06 c 0.268,-7.889 4.613,-14.106 11.832,-14.106 6.351,0 10.496,3.209 12.902,5.549 v -4.947 c -2.741,-2.474 -7.353,-4.345 -12.902,-4.345 -10.294,0 -16.444,7.621 -16.444,18.65 z" /></g><g
           transform="translate(738.032,80.9023)"
           id="g96"><path
             id="path98"
             style="fill:#00b1ff;fill-opacity:1;fill-rule:nonzero;stroke:none"
             d="m 0,0 c 3.342,-3.811 6.685,-5.615 11.365,-5.615 5.281,0 8.89,2.406 8.89,6.35 0,2.674 -0.869,4.68 -5.615,6.685 L 9.092,9.76 c -5.817,2.473 -8.624,5.482 -8.624,9.96 0,4.88 4.279,9.426 11.966,9.426 4.612,0 8.624,-2.005 11.164,-4.145 v -5.214 c -3.543,3.744 -7.621,5.616 -11.164,5.616 -5.148,0 -7.287,-2.741 -7.287,-5.683 0,-2.607 2.006,-4.077 6.151,-5.816 l 5.348,-2.272 c 5.949,-2.541 8.289,-5.816 8.289,-10.696 0,-6.217 -5.549,-10.295 -13.57,-10.295 -5.75,0 -9.025,1.939 -11.365,4.145 z" /></g></g></g></g></svg>